<svg width="41" height="41" viewBox="0 0 41 41" fill="none" xmlns="http://www.w3.org/2000/svg">
<path d="M34.5938 0H6.40625C2.86818 0 0 2.86818 0 6.40625V34.5938C0 38.1318 2.86818 41 6.40625 41H34.5938C38.1318 41 41 38.1318 41 34.5938V6.40625C41 2.86818 38.1318 0 34.5938 0Z" fill="#F00073"/>
<path d="M20.5001 11.7876C23.3188 11.7876 23.7032 11.7876 24.8563 11.7876C25.8813 11.7876 26.3938 12.0438 26.7782 12.172C27.2907 12.4282 27.6751 12.5563 28.0595 12.9407C28.4438 13.3251 28.7001 13.7095 28.8282 14.222C28.9564 14.6063 29.0845 15.1188 29.2126 16.1438C29.2126 17.297 29.2126 17.5532 29.2126 20.5001C29.2126 23.447 29.2126 23.7032 29.2126 24.8563C29.2126 25.8813 28.9564 26.3938 28.8282 26.7782C28.572 27.2907 28.4438 27.6751 28.0595 28.0595C27.6751 28.4438 27.2907 28.7001 26.7782 28.8282C26.3938 28.9564 25.8813 29.0845 24.8563 29.2126C23.7032 29.2126 23.447 29.2126 20.5001 29.2126C17.5532 29.2126 17.297 29.2126 16.1438 29.2126C15.1188 29.2126 14.6063 28.9564 14.222 28.8282C13.7095 28.572 13.3251 28.4438 12.9407 28.0595C12.5563 27.6751 12.3001 27.2907 12.172 26.7782C12.0438 26.3938 11.9157 25.8813 11.7876 24.8563C11.7876 23.7032 11.7876 23.447 11.7876 20.5001C11.7876 17.5532 11.7876 17.297 11.7876 16.1438C11.7876 15.1188 12.0438 14.6063 12.172 14.222C12.4282 13.7095 12.5563 13.3251 12.9407 12.9407C13.3251 12.5563 13.7095 12.3001 14.222 12.172C14.6063 12.0438 15.1188 11.9157 16.1438 11.7876C17.297 11.7876 17.6813 11.7876 20.5001 11.7876ZM20.5001 9.86572C17.5532 9.86572 17.297 9.86572 16.1438 9.86572C14.9907 9.86572 14.222 10.122 13.5813 10.3782C12.9407 10.6345 12.3001 11.0188 11.6595 11.6595C11.0188 12.3001 10.7626 12.8126 10.3782 13.5813C10.122 14.222 9.99385 14.9907 9.86572 16.1438C9.86572 17.297 9.86572 17.6813 9.86572 20.5001C9.86572 23.447 9.86572 23.7032 9.86572 24.8563C9.86572 26.0095 10.122 26.7782 10.3782 27.4188C10.6345 28.0595 11.0188 28.7001 11.6595 29.3407C12.3001 29.9813 12.8126 30.2376 13.5813 30.622C14.222 30.8782 14.9907 31.0063 16.1438 31.1345C17.297 31.1345 17.6813 31.1345 20.5001 31.1345C23.3188 31.1345 23.7032 31.1345 24.8563 31.1345C26.0095 31.1345 26.7782 30.8782 27.4188 30.622C28.0595 30.3657 28.7001 29.9813 29.3407 29.3407C29.9813 28.7001 30.2376 28.1876 30.622 27.4188C30.8782 26.7782 31.0063 26.0095 31.1345 24.8563C31.1345 23.7032 31.1345 23.3188 31.1345 20.5001C31.1345 17.6813 31.1345 17.297 31.1345 16.1438C31.1345 14.9907 30.8782 14.222 30.622 13.5813C30.3657 12.9407 29.9813 12.3001 29.3407 11.6595C28.7001 11.0188 28.1876 10.7626 27.4188 10.3782C26.7782 10.122 26.0095 9.99385 24.8563 9.86572C23.7032 9.86572 23.447 9.86572 20.5001 9.86572Z" fill="white"/>
<path d="M20.5001 14.9907C17.4251 14.9907 14.9907 17.4251 14.9907 20.5001C14.9907 23.5751 17.4251 26.0095 20.5001 26.0095C23.5751 26.0095 26.0095 23.5751 26.0095 20.5001C26.0095 17.4251 23.5751 14.9907 20.5001 14.9907ZM20.5001 24.0876C18.5782 24.0876 16.9126 22.5501 16.9126 20.5001C16.9126 18.5782 18.4501 16.9126 20.5001 16.9126C22.422 16.9126 24.0876 18.4501 24.0876 20.5001C24.0876 22.422 22.422 24.0876 20.5001 24.0876Z" fill="white"/>
<path d="M26.1376 16.1438C26.8452 16.1438 27.4188 15.5702 27.4188 14.8626C27.4188 14.155 26.8452 13.5813 26.1376 13.5813C25.43 13.5813 24.8563 14.155 24.8563 14.8626C24.8563 15.5702 25.43 16.1438 26.1376 16.1438Z" fill="white"/>
</svg>
