<svg width="41" height="41" viewBox="0 0 41 41" fill="none" xmlns="http://www.w3.org/2000/svg">
<path d="M34.5938 0H6.40625C2.86818 0 0 2.86818 0 6.40625V34.5938C0 38.1318 2.86818 41 6.40625 41H34.5938C38.1318 41 41 38.1318 41 34.5938V6.40625C41 2.86818 38.1318 0 34.5938 0Z" fill="#2867B2"/>
<path d="M14.8625 30.75H10.5062V17.0406H14.8625V30.75ZM12.6844 15.1188C11.275 15.1188 10.25 14.0937 10.25 12.6844C10.25 11.275 11.4031 10.25 12.6844 10.25C14.0938 10.25 15.1188 11.275 15.1188 12.6844C15.1188 14.0937 14.0938 15.1188 12.6844 15.1188ZM30.75 30.75H26.3938V23.3188C26.3938 21.1406 25.4969 20.5 24.2156 20.5C22.9344 20.5 21.6531 21.525 21.6531 23.4469V30.75H17.2969V17.0406H21.3969V18.9625C21.7812 18.0656 23.3187 16.6562 25.4969 16.6562C27.9312 16.6562 30.4938 18.0656 30.4938 22.2937V30.75H30.75Z" fill="white"/>
</svg>
