<svg width="41" height="41" viewBox="0 0 41 41" fill="none" xmlns="http://www.w3.org/2000/svg">
<path d="M34.5938 0H6.40625C2.86818 0 0 2.86818 0 6.40625V34.5938C0 38.1318 2.86818 41 6.40625 41H34.5938C38.1318 41 41 38.1318 41 34.5938V6.40625C41 2.86818 38.1318 0 34.5938 0Z" fill="#FF0000"/>
<path d="M30.2375 15.5031C29.9813 14.6062 29.3406 13.9656 28.4438 13.7093C26.9063 13.325 20.3719 13.325 20.3719 13.325C20.3719 13.325 13.9656 13.325 12.3 13.7093C11.4031 13.9656 10.7625 14.6062 10.5062 15.5031C10.25 17.1687 10.25 20.5 10.25 20.5C10.25 20.5 10.25 23.8312 10.6344 25.4968C10.8906 26.3937 11.5312 27.0343 12.4281 27.2906C13.9656 27.675 20.5 27.675 20.5 27.675C20.5 27.675 26.9062 27.675 28.5719 27.2906C29.4687 27.0343 30.1094 26.3937 30.3656 25.4968C30.75 23.8312 30.75 20.5 30.75 20.5C30.75 20.5 30.75 17.1687 30.2375 15.5031ZM18.45 23.575V17.425L23.8313 20.5L18.45 23.575Z" fill="white"/>
</svg>
