<svg width="108" height="14" viewBox="0 0 108 14" fill="none" xmlns="http://www.w3.org/2000/svg">
<path d="M15.4491 8.96568C15.4491 10.648 15.1465 11.7695 14.5412 12.3303C13.9478 12.8788 12.767 13.1531 10.9988 13.1531L8.23959 13.208L5.99664 13.1714C3.61128 13.1714 2.07444 12.8544 1.38613 12.2205C0.709679 11.5744 0.371456 10.5748 0.371456 9.22168L0.264648 6.66168C0.264648 4.66244 0.549468 3.19959 1.11911 2.27311C1.68875 1.33444 2.85176 0.86511 4.60814 0.86511L7.99038 0.773682C8.97538 0.773682 9.7883 0.785872 10.4291 0.810254C11.07 0.822444 11.8473 0.877301 12.7611 0.974824C13.6749 1.07235 14.3276 1.48682 14.7192 2.21825C15.1109 2.93749 15.3067 3.92492 15.3067 5.18054H11.7998C11.7998 4.61978 11.6634 4.24797 11.3904 4.06511C11.1293 3.87006 10.708 3.77254 10.1265 3.77254L9.11185 3.75425H8.11498L6.28146 3.77254C5.18965 3.77254 4.51914 3.97978 4.26992 4.39425C4.03257 4.80873 3.9139 5.66816 3.9139 6.97254C3.9139 8.31349 4.05631 9.18511 4.34113 9.5874C4.62595 9.98968 5.38546 10.1908 6.61968 10.1908L8.02598 10.2274L9.8773 10.2091C10.6012 10.2091 11.1175 10.1055 11.426 9.89825C11.7346 9.69102 11.8888 9.2034 11.8888 8.4354H15.4313L15.4491 8.96568Z" fill="#3FFFFF"/>
<path d="M21.0747 13.08H17.0516L23.6737 0.883396H28.5512L35.0308 13.08H31.0434L29.9219 10.8674H22.2496L21.0747 13.08ZM23.5135 8.34397H28.6046L26.059 3.51654L23.5135 8.34397Z" fill="#3FFFFF"/>
<path d="M48.7226 10.0263V13.08H36.9026V0.883396H40.5163V10.0263H48.7226Z" fill="#3FFFFF"/>
<path d="M50.4733 13.08V0.883396H54.0869V13.08H50.4733Z" fill="#3FFFFF"/>
<path d="M68.1846 0.883396C69.3714 0.883396 70.2792 1.11501 70.9082 1.57825C71.5372 2.04149 71.8517 2.85825 71.8517 4.02854C71.8517 4.54054 71.8042 4.9794 71.7093 5.34511C71.6262 5.69863 71.466 5.97902 71.2286 6.18625C71.0032 6.39349 70.7895 6.53368 70.5878 6.60683C70.3979 6.67997 70.125 6.7653 69.7689 6.86283C70.7302 7.0213 71.3948 7.27121 71.7627 7.61254C72.1306 7.95387 72.3145 8.60606 72.3145 9.56911C72.3145 10.9223 71.9941 11.8487 71.3532 12.3485C70.7243 12.8362 69.7274 13.08 68.3626 13.08H56.9165V0.883396H68.1846ZM68.2024 4.57711C68.2024 4.16263 68.0838 3.88835 67.8464 3.75425C67.6209 3.62016 67.2827 3.55311 66.8317 3.55311H60.5301V5.67425H66.7605C67.2352 5.67425 67.5912 5.60721 67.8286 5.47311C68.0778 5.33902 68.2024 5.04035 68.2024 4.57711ZM68.6831 9.13025C68.6831 8.80111 68.5763 8.54511 68.3626 8.36225C68.1609 8.1794 67.7574 8.08797 67.1522 8.08797H60.5301V10.3188H67.0988C67.5141 10.3188 67.882 10.2762 68.2024 10.1908C68.5228 10.0933 68.6831 9.73978 68.6831 9.13025Z" fill="#3FFFFF"/>
<path d="M90.1405 8.5634C90.1405 10.4651 89.6539 11.7207 88.6808 12.3303C87.7195 12.9276 86.2301 13.2263 84.2127 13.2263L81.2577 13.208C79.6912 13.208 78.4926 13.1226 77.6618 12.952C76.8311 12.7813 76.1606 12.3485 75.6503 11.6537C75.14 10.9588 74.8848 9.86778 74.8848 8.38054V0.901682H78.4985V7.2834C78.4985 8.50244 78.6409 9.29483 78.9257 9.66054C79.2105 10.0263 79.9285 10.2091 81.0797 10.2091L82.6996 10.2274L84.1949 10.2091C85.1799 10.2091 85.8089 10.0506 86.0818 9.73368C86.3666 9.41673 86.509 8.77673 86.509 7.81368V0.901682H90.1405V8.5634Z" fill="#3FFFFF"/>
<path d="M104.03 0.883396C105.454 0.883396 106.469 1.16987 107.074 1.74283C107.691 2.30359 108 3.30321 108 4.74168C108 5.29025 107.97 5.75959 107.911 6.14968C107.852 6.53978 107.733 6.88111 107.555 7.17368C107.377 7.45406 107.169 7.6674 106.932 7.81368C106.695 7.94778 106.196 8.14283 105.437 8.39883C106.267 8.50854 106.878 8.72797 107.27 9.05711C107.662 9.37406 107.858 9.93483 107.858 10.7394V13.08H104.19V11.9097C104.19 11.3123 104.137 10.8369 104.03 10.4834C103.935 10.1299 103.467 9.95311 102.624 9.95311H96.5894V13.08H92.9757V0.883396H104.03ZM102.517 6.99083C103.336 6.99083 103.846 6.88721 104.048 6.67997C104.25 6.47273 104.351 6.00949 104.351 5.29025C104.351 4.88797 104.309 4.5893 104.226 4.39425C104.155 4.19921 103.995 4.06511 103.745 3.99197C103.508 3.91882 103.312 3.87616 103.158 3.86397C103.004 3.85178 102.82 3.84568 102.606 3.84568H96.5894V6.99083H102.517Z" fill="#3FFFFF"/>
</svg>
