<svg width="24" height="24" viewBox="0 0 24 24" fill="none" xmlns="http://www.w3.org/2000/svg">
<path fill-rule="evenodd" clip-rule="evenodd" d="M12 2.89661C9.5556 2.89661 9.2496 2.90645 8.2896 2.94874C7.3314 2.99103 6.6768 3.13818 6.1044 3.3531C5.5044 3.57092 4.9602 3.91272 4.5102 4.35531C4.05253 4.78929 3.69831 5.31436 3.4722 5.89396C3.2508 6.44662 3.0978 7.07923 3.054 8.00439C3.0108 8.9307 3 9.22557 3 11.5863C3 13.947 3.0102 14.2418 3.054 15.1687C3.0978 16.0939 3.2502 16.7259 3.4728 17.2786C3.6984 17.8579 4.0524 18.3833 4.5108 18.8178C4.96029 19.2597 5.50411 19.6017 6.1044 19.82C6.6768 20.0343 7.3314 20.1815 8.2896 20.2238C9.2496 20.2661 9.5556 20.2759 12 20.2759C14.4444 20.2759 14.7504 20.2661 15.7104 20.2238C16.6686 20.1815 17.3232 20.0343 17.8956 19.8194C18.4956 19.6016 19.0398 19.2598 19.4898 18.8172C19.9475 18.3832 20.3017 17.8582 20.5278 17.2786C20.7498 16.7259 20.9022 16.0939 20.946 15.1687C20.9898 14.2418 21 13.9464 21 11.5863C21 9.22615 20.9898 8.9307 20.946 8.00381C20.9022 7.07865 20.7498 6.44662 20.5272 5.89396C20.3012 5.31411 19.947 4.78882 19.4892 4.35473C19.0397 3.91285 18.4959 3.57084 17.8956 3.35252C17.3232 3.13876 16.668 2.99103 15.7098 2.94874C14.7504 2.90703 14.445 2.89661 12 2.89661ZM12 4.46248C14.403 4.46248 14.688 4.47117 15.6372 4.51288C16.5144 4.5517 16.9908 4.69247 17.3082 4.81239C17.7282 4.96938 18.0282 5.15823 18.3432 5.46179C18.6582 5.76593 18.8532 6.05559 19.0158 6.4611C19.1394 6.76756 19.2858 7.22753 19.326 8.07448C19.3692 8.99095 19.3782 9.26612 19.3782 11.5863C19.3782 13.9064 19.3692 14.1816 19.326 15.098C19.2858 15.945 19.14 16.405 19.0158 16.7114C18.8718 17.0889 18.6419 17.4303 18.3432 17.7107C18.0528 17.9992 17.6992 18.2211 17.3082 18.3601C16.9908 18.4795 16.5144 18.6208 15.6372 18.6596C14.688 18.7014 14.4036 18.71 12 18.71C9.5964 18.71 9.312 18.7014 8.3628 18.6596C7.4856 18.6208 7.0092 18.4801 6.6918 18.3601C6.30087 18.2211 5.9472 17.9992 5.6568 17.7107C5.35811 17.4303 5.12828 17.0889 4.9842 16.7114C4.8606 16.405 4.7142 15.945 4.674 15.098C4.6308 14.1816 4.6218 13.9064 4.6218 11.5863C4.6218 9.26612 4.6308 8.99095 4.674 8.07448C4.7142 7.22753 4.86 6.76756 4.9842 6.4611C5.1468 6.05559 5.3424 5.76593 5.6568 5.46179C5.94716 5.17332 6.30085 4.95141 6.6918 4.81239C7.0092 4.69305 7.4856 4.5517 8.3628 4.51288C9.312 4.47117 9.597 4.46248 12 4.46248Z" fill="white"/>
<path fill-rule="evenodd" clip-rule="evenodd" d="M12 14.4856C11.6057 14.4856 11.2152 14.4106 10.8508 14.2649C10.4865 14.1192 10.1554 13.9056 9.87658 13.6364C9.59773 13.3671 9.37653 13.0475 9.22561 12.6957C9.0747 12.344 8.99702 11.9669 8.99702 11.5862C8.99702 11.2054 9.0747 10.8284 9.22561 10.4766C9.37653 10.1248 9.59773 9.80519 9.87658 9.53595C10.1554 9.26671 10.4865 9.05314 10.8508 8.90743C11.2152 8.76172 11.6057 8.68672 12 8.68672C12.7965 8.68672 13.5603 8.9922 14.1235 9.53595C14.6866 10.0797 15.003 10.8172 15.003 11.5862C15.003 12.3551 14.6866 13.0926 14.1235 13.6364C13.5603 14.1801 12.7965 14.4856 12 14.4856ZM12 7.11968C10.7731 7.11968 9.59649 7.59026 8.72895 8.42789C7.8614 9.26552 7.37402 10.4016 7.37402 11.5862C7.37402 12.7708 7.8614 13.9068 8.72895 14.7444C9.59649 15.5821 10.7731 16.0527 12 16.0527C13.2269 16.0527 14.4036 15.5821 15.2711 14.7444C16.1386 13.9068 16.626 12.7708 16.626 11.5862C16.626 10.4016 16.1386 9.26552 15.2711 8.42789C14.4036 7.59026 13.2269 7.11968 12 7.11968ZM17.9718 7.03858C17.9718 7.3186 17.8566 7.58714 17.6515 7.78514C17.4465 7.98314 17.1683 8.09437 16.8783 8.09437C16.5883 8.09437 16.3102 7.98314 16.1051 7.78514C15.9 7.58714 15.7848 7.3186 15.7848 7.03858C15.7848 6.75857 15.9 6.49002 16.1051 6.29202C16.3102 6.09402 16.5883 5.98279 16.8783 5.98279C17.1683 5.98279 17.4465 6.09402 17.6515 6.29202C17.8566 6.49002 17.9718 6.75857 17.9718 7.03858Z" fill="white"/>
</svg>
