<svg width="14" height="14" viewBox="0 0 14 14" fill="none" xmlns="http://www.w3.org/2000/svg">
<path fill-rule="evenodd" clip-rule="evenodd" d="M13.875 0.8125C13.875 0.75 13.875 0.6875 13.8125 0.625V0.5625C13.8125 0.5 13.75 0.4375 13.6875 0.375C13.6562 0.34375 13.625 0.328125 13.5938 0.3125C13.5625 0.296875 13.5312 0.28125 13.5 0.25H13.4375C13.375 0.25 13.3125 0.25 13.25 0.1875V0.25C13.1875 0.25 13.125 0.25 13.0625 0.3125L0.5625 4.6875C0.3125 4.75 0.125 4.9375 0.125 5.25C0.125 5.5 0.25 5.75 0.5 5.875L5.875 8.25L8.25 13.625C8.375 13.875 8.5625 14 8.8125 14C9.0625 14 9.3125 13.8125 9.375 13.5625L13.75 1.0625C13.875 1 13.875 0.9375 13.875 0.8125ZM10.875 2.375L6.25 7L2.4375 5.3125L10.875 2.375ZM7.125 7.875L8.8125 11.6875L11.75 3.25L7.125 7.875Z" fill="black"/>
</svg>
