<svg width="23" height="23" viewBox="0 0 23 23" fill="none" xmlns="http://www.w3.org/2000/svg">
<path d="M16.1209 4.92043C15.4183 4.11498 14.996 3.06475 14.996 1.91663H14.1156C14.3423 3.17156 15.0894 4.2485 16.1209 4.92043Z" fill="white"/>
<path d="M7.97505 11.4087C6.44995 11.4087 5.20942 12.6503 5.20942 14.1767C5.20942 15.2403 5.81412 16.1659 6.6945 16.6287C6.36547 16.1748 6.16983 15.6185 6.16983 15.0133C6.16983 13.4869 7.41036 12.2453 8.9355 12.2453C9.22006 12.2453 9.49571 12.2943 9.75361 12.3744V9.01013C9.4868 8.97449 9.2156 8.95222 8.9355 8.95222C8.88656 8.95222 8.8421 8.95667 8.79318 8.95667V11.5378C8.53085 11.4576 8.25962 11.4087 7.97505 11.4087Z" fill="white"/>
<path d="M18.6152 6.39787V8.95667C16.9077 8.95667 15.3249 8.40934 14.0354 7.48369V14.1811C14.0354 17.5232 11.3187 20.2467 7.97498 20.2467C6.68553 20.2467 5.48502 19.8372 4.50237 19.1475C5.60951 20.3356 7.18797 21.0833 8.93543 21.0833C12.2746 21.0833 14.9958 18.3643 14.9958 15.0178V8.32031C16.2852 9.24597 17.8681 9.7933 19.5756 9.7933V6.50026C19.2421 6.50026 18.9219 6.46462 18.6152 6.39787Z" fill="white"/>
<path d="M14.0354 14.1811V7.48369C15.3249 8.40934 16.9077 8.95667 18.6152 8.95667V6.39787C17.6281 6.18877 16.7612 5.65473 16.1209 4.92043C15.0893 4.2485 14.3466 3.17156 14.111 1.91663H11.701L11.6966 15.1201C11.6433 16.5975 10.4249 17.7857 8.93543 17.7857C8.01056 17.7857 7.19687 17.3274 6.68999 16.6332C5.8096 16.1659 5.2049 15.2447 5.2049 14.1811C5.2049 12.6548 6.44543 11.4132 7.97054 11.4132C8.2551 11.4132 8.53078 11.4621 8.78867 11.5422V8.96113C5.51614 9.03234 2.875 11.7202 2.875 15.0178C2.875 16.6109 3.49305 18.0617 4.50237 19.1475C5.48502 19.8372 6.68553 20.2467 7.97498 20.2467C11.3142 20.2467 14.0354 17.5232 14.0354 14.1811Z" fill="white"/>
</svg>
